<?xml version="1.0" encoding="UTF-8"?>
<svg xmlns="http://www.w3.org/2000/svg" id="Ebene_1" viewBox="0 0 622 338">
  <defs>
    <style>.cls-1{fill:#fff;}</style>
  </defs>
  <path class="cls-1" d="M67.25,92.14c0,1.92,1.21,3.51,3.65,4.75,2.43,1.25,5.48,2.43,9.16,3.56,3.67,1.13,7.63,2.35,11.87,3.65,4.24,1.3,8.2,3.03,11.87,5.17,3.67,2.15,6.73,4.89,9.16,8.23,2.43,3.34,3.65,7.49,3.65,12.47,0,3.51-.68,6.84-2.04,10.01-1.36,3.17-3.54,5.94-6.53,8.31-3,2.37-6.9,4.24-11.7,5.6-4.81,1.36-10.6,2.04-17.39,2.04-2.94,0-6-.14-9.16-.42-3.17-.28-6.22-.71-9.16-1.27-2.94-.56-5.71-1.24-8.31-2.04-2.6-.79-4.86-1.7-6.79-2.71l7.97-17.81c1.47.68,3.31,1.36,5.51,2.04,2.2.68,4.52,1.27,6.95,1.78,2.43.51,4.8.93,7.12,1.27,2.32.34,4.27.51,5.85.51,6.45,0,10.94-.54,13.48-1.61,2.54-1.07,3.82-2.8,3.82-5.17,0-1.92-1.22-3.45-3.65-4.58-2.43-1.13-5.49-2.21-9.16-3.22-3.68-1.02-7.63-2.18-11.87-3.48-4.24-1.3-8.2-2.97-11.87-5-3.68-2.04-6.73-4.64-9.16-7.8-2.43-3.16-3.65-7.24-3.65-12.21s.99-8.79,2.97-12.13c1.98-3.33,4.63-6.05,7.97-8.14,3.33-2.09,7.24-3.62,11.7-4.58,4.46-.96,9.24-1.44,14.33-1.44,5.77.11,10.88.74,15.35,1.87,4.46,1.13,8.68,2.71,12.64,4.75l-7.97,17.64c-2.26-1.47-5.51-2.77-9.75-3.9-4.24-1.13-9.08-1.7-14.5-1.7-2.83,0-5.6.45-8.31,1.36-2.71.91-4.07,2.32-4.07,4.24Z"></path>
  <path class="cls-1" d="M159.86,155.4c-11.54,0-20.78-3.53-27.73-10.6-6.95-7.07-10.43-17.16-10.43-30.28V35.48h20.35v33.92h17.81v18.66h-17.64v27.65c0,5.77,1.44,10.71,4.32,14.84,2.88,4.13,7.32,6.19,13.32,6.19v18.66Z"></path>
  <path class="cls-1" d="M250.1,124.53c-1.13,4.18-2.86,8.17-5.17,11.96-2.32,3.79-5.26,7.1-8.82,9.92-3.56,2.83-7.78,5.06-12.64,6.7-4.86,1.64-10.41,2.46-16.62,2.46-7.8,0-14.53-1.25-20.19-3.73-5.66-2.49-10.32-5.79-13.99-9.92-3.68-4.13-6.39-8.82-8.14-14.08-1.75-5.26-2.63-10.66-2.63-16.2s.87-10.94,2.63-16.2c1.75-5.26,4.46-9.95,8.14-14.08,3.67-4.13,8.34-7.43,13.99-9.92,5.65-2.49,12.38-3.73,20.19-3.73,7.35,0,13.74,1.25,19.17,3.73,5.43,2.49,9.92,5.8,13.49,9.92,3.56,4.13,6.22,8.82,7.97,14.08,1.75,5.26,2.63,10.66,2.63,16.2,0,1.02-.06,2.06-.17,3.14-.11,1.08-.23,2.12-.34,3.14h-67c1.24,5.09,3.84,9.53,7.8,13.32,3.96,3.79,9.44,5.68,16.45,5.68,5.43,0,9.95-1.16,13.57-3.48,3.62-2.32,6.39-5.29,8.31-8.91h21.37ZM228.05,100.96c-1.58-4.18-4.16-7.66-7.72-10.43-3.56-2.77-8.06-4.16-13.48-4.16-6,0-10.88,1.42-14.67,4.24-3.79,2.83-6.53,6.28-8.23,10.35h44.1Z"></path>
  <path class="cls-1" d="M256.89,69.41h20.36v84.81h-20.36v-84.81Z"></path>
  <path class="cls-1" d="M323.38,68.22c12.55,0,22.22,3.54,29.01,10.6,6.79,7.07,10.18,16.94,10.18,29.6v45.8h-20.35v-48.68c0-5.65-1.75-10.18-5.26-13.57-3.51-3.39-8.03-5.09-13.57-5.09s-10.07,1.7-13.57,5.09c-3.51,3.39-5.26,7.92-5.26,13.57v48.68h-20.35v-45.8c0-12.66,3.39-22.53,10.18-29.6,6.78-7.07,16.45-10.6,29-10.6Z"></path>
  <path class="cls-1" d="M457.55,124.53c-1.13,4.18-2.86,8.17-5.17,11.96-2.32,3.79-5.26,7.1-8.82,9.92-3.56,2.83-7.78,5.06-12.64,6.7-4.86,1.64-10.41,2.46-16.62,2.46-7.8,0-14.53-1.25-20.18-3.73-5.66-2.49-10.32-5.79-13.99-9.92-3.68-4.13-6.39-8.82-8.14-14.08-1.75-5.26-2.63-10.66-2.63-16.2s.87-10.94,2.63-16.2c1.75-5.26,4.47-9.95,8.14-14.08,3.67-4.13,8.34-7.43,13.99-9.92,5.65-2.49,12.38-3.73,20.18-3.73,7.35,0,13.74,1.25,19.17,3.73,5.43,2.49,9.92,5.8,13.48,9.92,3.56,4.13,6.22,8.82,7.97,14.08,1.75,5.26,2.63,10.66,2.63,16.2,0,1.02-.06,2.06-.17,3.14-.11,1.08-.23,2.12-.34,3.14h-67c1.24,5.09,3.84,9.53,7.8,13.32,3.96,3.79,9.44,5.68,16.45,5.68,5.43,0,9.95-1.16,13.57-3.48,3.62-2.32,6.39-5.29,8.31-8.91h21.37ZM435.5,100.96c-1.58-4.18-4.16-7.66-7.72-10.43-3.56-2.77-8.06-4.16-13.49-4.16-6,0-10.88,1.42-14.67,4.24-3.79,2.83-6.53,6.28-8.23,10.35h44.1Z"></path>
  <path class="cls-1" d="M67.25,233.49c0,1.92,1.21,3.51,3.65,4.75,2.43,1.25,5.48,2.43,9.16,3.56,3.67,1.13,7.63,2.35,11.87,3.65,4.24,1.3,8.2,3.03,11.87,5.17,3.67,2.15,6.73,4.89,9.16,8.23,2.43,3.34,3.65,7.49,3.65,12.47,0,3.51-.68,6.84-2.04,10.01-1.36,3.17-3.54,5.94-6.53,8.31-3,2.37-6.9,4.24-11.7,5.6-4.81,1.36-10.6,2.04-17.39,2.04-2.94,0-6-.14-9.16-.42-3.17-.28-6.22-.71-9.16-1.27-2.94-.56-5.71-1.24-8.31-2.04-2.6-.79-4.86-1.7-6.79-2.71l7.97-17.81c1.47.68,3.31,1.36,5.51,2.04,2.2.68,4.52,1.27,6.95,1.78,2.43.51,4.8.93,7.12,1.27,2.32.34,4.27.51,5.85.51,6.45,0,10.94-.54,13.48-1.61,2.54-1.07,3.82-2.8,3.82-5.17,0-1.92-1.22-3.45-3.65-4.58-2.43-1.13-5.49-2.21-9.16-3.22-3.68-1.02-7.63-2.18-11.87-3.48-4.24-1.3-8.2-2.97-11.87-5-3.68-2.04-6.73-4.64-9.16-7.8-2.43-3.16-3.65-7.24-3.65-12.21s.99-8.79,2.97-12.13c1.98-3.33,4.63-6.05,7.97-8.14,3.33-2.09,7.24-3.62,11.7-4.58,4.46-.96,9.24-1.44,14.33-1.44,5.77.11,10.88.74,15.35,1.87,4.46,1.13,8.68,2.71,12.64,4.75l-7.97,17.64c-2.26-1.47-5.51-2.77-9.75-3.9-4.24-1.13-9.08-1.7-14.5-1.7-2.83,0-5.6.45-8.31,1.36-2.71.91-4.07,2.32-4.07,4.24Z"></path>
  <path class="cls-1" d="M159.86,296.75c-11.54,0-20.78-3.53-27.73-10.6-6.95-7.07-10.43-17.16-10.43-30.28v-79.04h20.35v33.92h17.81v18.66h-17.64v27.65c0,5.77,1.44,10.71,4.32,14.84,2.88,4.13,7.32,6.19,13.32,6.19v18.66Z"></path>
  <path class="cls-1" d="M250.1,265.88c-1.13,4.18-2.86,8.17-5.17,11.96-2.32,3.79-5.26,7.1-8.82,9.92-3.56,2.83-7.78,5.06-12.64,6.7-4.86,1.64-10.41,2.46-16.62,2.46-7.8,0-14.53-1.25-20.19-3.73-5.66-2.49-10.32-5.79-13.99-9.92-3.68-4.13-6.39-8.82-8.14-14.08-1.75-5.26-2.63-10.66-2.63-16.2s.87-10.94,2.63-16.2c1.75-5.26,4.46-9.95,8.14-14.08,3.67-4.13,8.34-7.43,13.99-9.92,5.65-2.49,12.38-3.73,20.19-3.73,7.35,0,13.74,1.25,19.17,3.73,5.43,2.49,9.92,5.8,13.49,9.92,3.56,4.13,6.22,8.82,7.97,14.08,1.75,5.26,2.63,10.66,2.63,16.2,0,1.02-.06,2.07-.17,3.14-.11,1.08-.23,2.12-.34,3.14h-67c1.24,5.09,3.84,9.53,7.8,13.32,3.96,3.79,9.44,5.68,16.45,5.68,5.43,0,9.95-1.16,13.57-3.48,3.62-2.32,6.39-5.29,8.31-8.91h21.37ZM228.05,242.31c-1.58-4.18-4.16-7.66-7.72-10.43-3.56-2.77-8.06-4.16-13.48-4.16-6,0-10.88,1.42-14.67,4.24-3.79,2.83-6.53,6.28-8.23,10.35h44.1Z"></path>
  <path class="cls-1" d="M296.07,296.75c-12.55,0-22.22-3.53-29-10.6-6.79-7.07-10.18-16.93-10.18-29.6v-45.8h20.36v48.68c0,5.66,1.75,10.18,5.26,13.57,3.5,3.39,8.03,5.09,13.57,5.09s10.06-1.7,13.57-5.09c3.5-3.39,5.26-7.91,5.26-13.57v-48.68h20.35v45.8c0,12.67-3.39,22.53-10.18,29.6-6.79,7.07-16.45,10.6-29,10.6Z"></path>
  <path class="cls-1" d="M430.24,265.88c-1.13,4.18-2.86,8.17-5.17,11.96-2.32,3.79-5.26,7.1-8.82,9.92-3.56,2.83-7.78,5.06-12.64,6.7-4.86,1.64-10.41,2.46-16.62,2.46-7.8,0-14.53-1.25-20.18-3.73-5.66-2.49-10.32-5.79-13.99-9.92-3.68-4.13-6.39-8.82-8.14-14.08-1.75-5.26-2.63-10.66-2.63-16.2s.87-10.94,2.63-16.2c1.75-5.26,4.47-9.95,8.14-14.08,3.67-4.13,8.34-7.43,13.99-9.92,5.65-2.49,12.38-3.73,20.18-3.73,7.35,0,13.74,1.25,19.17,3.73,5.43,2.49,9.92,5.8,13.48,9.92,3.56,4.13,6.22,8.82,7.97,14.08,1.75,5.26,2.63,10.66,2.63,16.2,0,1.02-.06,2.07-.17,3.14-.11,1.08-.23,2.12-.34,3.14h-67c1.24,5.09,3.84,9.53,7.8,13.32,3.96,3.79,9.44,5.68,16.45,5.68,5.43,0,9.95-1.16,13.57-3.48,3.62-2.32,6.39-5.29,8.31-8.91h21.37ZM408.19,242.31c-1.58-4.18-4.16-7.66-7.72-10.43-3.56-2.77-8.06-4.16-13.49-4.16-6,0-10.88,1.42-14.67,4.24-3.79,2.83-6.53,6.28-8.23,10.35h44.1Z"></path>
  <path class="cls-1" d="M437.02,295.57v-61.74c0-6.78,2.09-12.32,6.28-16.62,4.18-4.3,10.35-6.45,18.49-6.45h25.44v18.66h-22.39c-2.71,0-4.64.62-5.77,1.87-1.13,1.25-1.7,2.88-1.7,4.92v59.37h-20.35Z"></path>
  <path class="cls-1" d="M533.03,209.57c12.55,0,22.22,3.54,29,10.6,6.78,7.07,10.18,16.94,10.18,29.6v45.8h-20.35v-48.68c0-5.65-1.76-10.18-5.26-13.57-3.51-3.39-8.03-5.09-13.57-5.09s-10.07,1.7-13.57,5.09c-3.51,3.39-5.26,7.92-5.26,13.57v48.68h-20.35v-45.8c0-12.66,3.39-22.53,10.18-29.6,6.79-7.07,16.45-10.6,29.01-10.6Z"></path>
</svg>
